<svg version="1" xmlns="http://www.w3.org/2000/svg" width="616" height="616" viewBox="0 0 462.000000 462.000000"><path d="M113.5 1.3c-9.7 4.4-12.4 17.2-5.4 25.2 5.8 6.6 16.4 7.2 22.4 1.2 1.7-1.8 3.6-4.1 4.2-5.2 1.1-1.8 2.2-2 18.2-2 14.4 0 17 .2 17.3 1.5.2.8.4 14.6.3 30.7v29.2l-3.4 2.3c-5.8 3.9-7.5 7.1-7.6 13.8 0 9.7 5.7 15.5 15.5 15.5 9.7 0 15.5-5.8 15.5-15.5 0-6.6-1.8-9.9-7.6-13.8l-3.4-2.3V11.5h-43.4l-2.3-3.4c-1.3-1.9-3.4-4.3-4.8-5.3-3.4-2.5-11.6-3.2-15.5-1.5zM222.5 1.4c-11.9 5.3-12.5 21.7-1.1 28.7l3.1 1.9v50.2l-2.6 1.4c-9.7 5-11.7 17.3-4.1 25.3 11.1 11.7 29.7 1.5 26.7-14.6-.6-3.3-4.1-7.6-9.6-11.9-1.2-.8-1.4-5.8-1.4-25.7V32.1l3.4-2.3c5.5-3.7 7.5-7.2 7.8-13.3.1-4.6-.3-6-2.7-9.4-1.6-2.2-3.9-4.5-5.1-5.1-3.3-1.8-11.1-2.2-14.4-.6zM397 1.1c-3.2 1.3-6.8 4.7-8.5 7.9l-1.3 2.5h-54.1c-35.6 0-54.1.3-54.2 1-.1.5-.2 16.5-.3 35.4-.1 29.7-.3 34.5-1.6 34.9-.8.3-3.2 2.1-5.2 4.2-6.5 6.4-6.4 15.4.2 22 10.9 10.9 28.7 2.1 26.7-13.2-.6-4.5-4.6-10.2-8.5-12.2l-2.7-1.4.1-30.3c.1-16.7.2-30.6.3-30.9 0-.3 22.4-.5 49.6-.5H387l1.9 3c8.8 14.3 30.1 8.8 30.1-7.8C419 5 407.1-2.9 397 1.1zM11.4 112.1c-1.8.5-4.6 2.5-6.2 4.4-11.1 12.6 2.6 31.6 18.1 25.1 3.4-1.4 8.7-6.9 8.7-9 0-1.1 5.9-1.7 6.1-.6.1.3.2 12.4.3 27l.1 26.5 20 .2c15.6.1 20 .4 20.4 1.5.2.7 2.1 3 4.2 5 6.3 6.1 14.9 6.3 21.4.7 12.2-10.7 2.1-30.5-14-27.5-4.2.8-10.3 5.8-11.1 9.2l-.6 2.4-15.7-.2-15.6-.3-.1-26.5c-.1-14.6-.2-26.8-.3-27.1 0-.3-3.4-.5-7.4-.4-7.2.1-7.4 0-8.6-2.7-2.9-6.6-11.9-10.1-19.7-7.7zM439.5 113.4c-7.3 3.2-11.2 12.8-8.3 20.4.8 2.3 3.1 5 5.9 7.1l4.6 3.3-.1 41.7-.1 41.6-30.6.3-30.7.2-.6-2.4c-.8-3.4-6.9-8.4-11.1-9.2-5.8-1-10.5.4-14.6 4.5-6.6 6.6-6.5 15.9.2 22.3 4.2 4 8.8 5.4 14.4 4.4 3.9-.8 10-5.6 11-8.7.6-1.8 1.9-1.9 35.9-1.9h35.3v-46.7c.1-44.3.2-46.7 1.9-47.6 3.7-2 8.3-7.8 9-11.2 2.4-13-10.2-23.3-22.1-18.1zM137.2 135.7c-1.8.9-4.4 3.5-5.7 5.8l-2.5 4.2v88.1c0 49.4.4 89.1.9 90.4 1.4 3.6 4.5 6.6 8.4 8.3 5.5 2.3 175.9 2.3 181.4 0 4.4-1.9 7.9-5.8 8.7-9.8.3-1.6.6-42.2.6-90.1-.1-96.4.3-90.5-6.5-95.8l-3-2.3-89.5-.2c-81.1-.2-89.8-.1-92.8 1.4z"/><path d="M358.5 167.4c-9.4 4.1-12.4 16.8-5.8 24.7 7 8.3 18.8 7.7 25.3-1.3 3.1-4.3 3.2-4.3 9.6-4.3 3.8 0 6.4.4 6.4 1s1.4 2.7 3.1 4.7c5.3 6.5 14.7 7.5 21.6 2.2 8.4-6.4 8.3-18.5-.1-24.9-7.4-5.6-17-4.1-22.6 3.7-3.1 4.3-3.1 4.3-9.6 4.3-4.4.1-6.4-.3-6.4-1.1 0-2.1-5.3-7.6-8.7-9-4-1.7-8.9-1.7-12.8 0zM10.5 178.4C-1 183.5-2.2 198.5 8.2 206l4.3 3.1v26.4l33.2.3c31.7.2 33.2.3 33.8 2.2 1 3 7.1 7.8 11 8.6 5.8 1 10.5-.4 14.6-4.5 6.6-6.6 6.5-15.9-.2-22.3-4.2-4-8.8-5.4-14.4-4.4-4.2.8-10.3 5.8-11.1 9.2l-.6 2.4H50.4c-15.6 0-28.5-.3-28.5-.8-.1-.4-.2-4.6-.3-9.4-.1-8.1 0-8.7 2-9.2 3.2-.8 8.2-7 9-11.1 2.4-13-10.2-23.4-22.1-18.1zM88.5 265.2c-3.6 1.3-7.2 4.4-9 7.8l-1.3 2.5H61.5c-9.5 0-16.9.4-17.3.9-.3.5-.6 5.3-.6 10.5l-.1 9.6-5 .3c-5 .3-5.1.2-8.2-4.2-4-5.6-9-8-15.2-7.2-14.2 1.9-19 19.4-7.7 28.1 6.6 5 16 4.2 21.4-1.9 1.6-1.9 3.1-3.9 3.4-4.6.2-.7 3.8-1.2 10.3-1.3l10-.2.2-7c.1-3.9.2-8.6.2-10.5l.1-3.6 12.4.1h12.5l3.1 4.3c1.8 2.5 4.7 5 6.8 5.9 11 4.6 23.4-4.8 21.8-16.5-1.4-10.4-11.2-16.4-21.1-13zM355.8 268.3c-8.9 6.4-9 18.6-.2 25.3 3.1 2.4 4.7 2.9 9.4 2.9s6.3-.5 9.3-2.8c2-1.5 4.3-4 5.1-5.6 1.4-2.7 1.6-2.7 9.8-2.5 4.6.1 8.6.2 9.1.3.4 0 .7 9.7.7 21.4v21.4l15.5-.3 15.5-.2 1.5 2.8c2.3 4.4 7.9 8.2 12.9 8.7 15.1 1.7 23.5-17.6 12-27.6-6.4-5.7-15.4-5.3-21.4.7-2.1 2-3.9 4.3-4.1 5-.3.9-3.5 1.4-11.6 1.5l-11.3.3-.2-21.6-.3-21.5h-13.2c-7.3 0-13.4-.3-13.5-.5-4.7-6.5-6.4-8.2-9.2-9.5-4.9-2.3-11.1-1.6-15.8 1.8zM168.2 355.7c-1.8.9-4.5 3.2-6 5.1-2.2 2.9-2.7 4.5-2.7 9.7 0 5.2.4 6.7 2.9 9.9 1.5 2.1 3.9 4.2 5.2 4.8 2.2 1 2.4 1.7 2.4 7.4v6.3h-16.2c-16 0-19.8-.7-19.8-3.3 0-.8-1.6-2.8-3.5-4.4-11.5-10.2-28.9 0-26.1 15.3 1 4.9 7.1 11.1 11.9 12 7.4 1.4 15.5-2.3 17.8-8.2.5-1.4 1.7-2.3 3.1-2.4 1.3 0 11.2-.1 22.1-.1H179V386.5l3-1.3c1.7-.8 4.3-3 5.8-5 2.3-3 2.7-4.5 2.7-9.7 0-5.2-.5-6.8-2.7-9.7-4.9-6.4-12.8-8.5-19.6-5.1zM223 355.1c-7.3 2.9-11.7 13.2-9 20.8 1.4 4 7.1 10.1 9.4 10.1 1.2 0 1.4 4.1 1.4 27.2-.1 15-.4 27.5-.8 27.8-.5.3-3.2.3-6.2.2-4.6-.4-5.5-.8-7.3-3.5-2.9-4.4-6.7-6.9-11.7-7.4-16-1.8-24 18.5-11.2 28.4 7.3 5.5 17.1 3.7 22.7-4.3l3-4.2h8.6c4.7 0 9.4 0 10.3-.1 1.6-.1 1.7-2.4 1.7-28.4 0-15.5.1-29.8.1-31.7.1-2.9.7-4 3.9-6.1 5-3.5 7.5-8.8 6.9-15-1.1-10.7-12-17.7-21.8-13.8zM276.2 355.6c-1.8 1-4.5 3.3-6 5.2-2.3 3-2.7 4.6-2.7 9.7 0 5.2.4 6.7 2.8 9.8 1.5 2 4 4.3 5.5 5.1l2.7 1.4v37l18.8-.1c10.3 0 18.9.2 19 .4 6 8.8 10.3 11.4 17.3 10.6 7.7-.8 13.3-6.4 14.1-13.9 1.4-12.1-10.7-21.2-22-16.4-3.5 1.4-8.7 6.9-8.7 9 0 1-3.3 1.3-13.7 1.4-7.6.1-14.3-.2-14.8-.6-.6-.4-1-6.1-1-14.2v-13.5l2.6-1.1c7.1-3.2 10.9-14.3 7.4-21.8-3.8-8-13.9-11.8-21.3-8z"/></svg>